<?xml version="1.0" standalone="no"?>
<!DOCTYPE svg PUBLIC "-//W3C//DTD SVG 20010904//EN"
 "http://www.w3.org/TR/2001/REC-SVG-20010904/DTD/svg10.dtd">
<svg version="1.0" xmlns="http://www.w3.org/2000/svg"
 width="260.000000pt" height="260.000000pt" viewBox="0 0 260.000000 260.000000"
 preserveAspectRatio="xMidYMid meet">
<metadata>
Created by potrace 1.11, written by Peter Selinger 2001-2013
</metadata>
<g transform="translate(0.000000,260.000000) scale(0.100000,-0.100000)"
fill="#000000" stroke="none">
<path d="M345 1853 c-102 -16 -193 -60 -253 -124 -42 -45 -55 -87 -50 -168 3
-56 9 -76 38 -120 110 -172 373 -236 576 -140 57 27 110 69 86 69 -6 0 -14 -5
-18 -11 -4 -6 -36 -25 -73 -42 -119 -54 -289 -49 -417 12 -143 69 -212 222
-155 347 76 168 415 186 720 39 107 -52 261 -142 261 -154 0 -11 -121 -51
-153 -51 -16 0 -60 19 -99 42 -85 50 -161 62 -221 33 -43 -20 -53 -45 -36 -86
23 -57 99 -72 235 -47 47 8 70 8 88 0 20 -9 186 -122 209 -142 5 -4 -17 -25
-48 -46 -56 -36 -59 -37 -99 -25 -136 41 -192 39 -229 -11 l-21 -28 20 -27
c11 -15 35 -31 52 -35 33 -9 129 8 190 33 30 12 37 11 75 -9 23 -12 61 -37 84
-55 l41 -34 -74 -37 c-62 -31 -133 -54 -249 -79 -11 -3 0 -5 24 -6 56 -1 167
32 254 76 l68 34 56 -54 56 -53 -37 -49 c-78 -102 -111 -200 -104 -314 8 -127
78 -231 157 -231 43 0 102 56 131 123 55 127 27 279 -75 413 -19 25 -35 49
-35 54 0 15 95 100 112 100 10 0 43 -13 75 -29 86 -43 151 -63 223 -67 l65 -4
-70 16 c-81 18 -207 65 -249 93 l-29 19 86 57 85 57 38 -20 c51 -26 145 -45
180 -36 63 15 85 72 43 110 -31 28 -149 26 -205 -4 l-42 -21 -63 40 -63 41 25
19 c13 11 64 47 112 80 82 57 91 61 130 55 23 -3 80 -8 127 -12 83 -6 86 -6
118 21 24 20 32 35 32 59 0 48 -29 69 -99 74 -48 3 -70 -1 -116 -22 -31 -14
-68 -35 -82 -46 -38 -30 -74 -26 -212 25 -33 13 250 166 394 214 210 69 443
54 539 -35 120 -112 66 -317 -105 -403 -82 -41 -156 -54 -268 -49 -84 5 -101
9 -172 46 -81 41 -103 44 -46 5 212 -144 546 -76 647 132 70 146 17 270 -149
348 -59 28 -78 32 -177 35 -127 5 -205 -12 -353 -76 -84 -35 -256 -132 -317
-179 -17 -12 -35 -23 -40 -23 -5 0 -45 15 -88 34 l-79 34 84 44 c46 23 92 46
102 50 9 4 17 9 17 12 0 10 -50 -9 -136 -50 -50 -24 -97 -44 -105 -44 -8 0
-19 -4 -24 -9 -16 -15 -136 -61 -159 -61 -12 0 -44 15 -71 33 -28 19 -81 51
-120 72 -38 22 -71 43 -73 47 -2 4 -9 8 -16 8 -7 0 -47 16 -88 34 -130 61
-297 94 -393 79z m1058 -271 l68 -29 -28 -18 c-15 -10 -51 -35 -79 -56 -59
-45 -73 -47 -111 -16 -15 13 -50 38 -77 56 l-48 33 83 38 c59 26 90 35 104 29
11 -4 51 -21 88 -37z m-644 -56 l53 -33 -38 -6 c-68 -12 -138 -8 -162 9 -26
18 -27 27 -6 48 27 28 93 20 153 -18z m1235 18 c46 -46 -24 -80 -132 -64 -35
5 -66 11 -68 13 -2 2 22 18 53 35 64 35 122 41 147 16z m-805 -61 c44 -32 80
-60 80 -63 0 -3 -32 -26 -71 -51 l-70 -47 -80 64 c-44 36 -88 70 -99 77 -24
15 -25 27 -1 27 9 1 42 12 72 25 30 13 63 24 72 25 10 0 54 -26 97 -57z m385
32 c39 -14 77 -28 84 -30 8 -3 -20 -30 -66 -64 -43 -33 -85 -67 -92 -76 -7 -8
-19 -15 -28 -15 -18 0 -142 82 -139 92 2 7 158 117 166 118 2 0 36 -11 75 -25z
m-202 -166 c38 -29 66 -55 61 -59 -4 -3 -36 -30 -70 -60 l-63 -53 -32 26 c-18
15 -51 42 -72 61 l-39 34 69 51 c38 28 71 51 73 51 2 0 35 -23 73 -51z m-165
-133 l71 -54 -43 -31 c-24 -17 -50 -31 -59 -31 -8 0 -48 24 -88 53 l-74 53 50
32 c28 17 56 31 61 32 6 0 42 -24 82 -54z m325 21 l54 -32 -82 -57 -82 -57
-51 36 -51 36 72 53 c39 30 75 54 79 54 3 0 31 -15 61 -33z m-627 -22 l30 -13
-39 -17 c-63 -27 -97 -28 -134 -5 -76 47 45 77 143 35z m948 6 c15 -15 -6 -41
-43 -52 -34 -10 -46 -9 -95 11 -31 12 -54 24 -52 26 2 2 28 10 58 18 52 15
115 13 132 -3z m-506 -106 c25 -19 50 -35 55 -35 5 0 -16 -24 -47 -52 l-56
-53 -53 49 -54 50 52 37 c28 21 52 38 54 39 2 0 24 -16 49 -35z m-11 -228
c102 -136 127 -281 73 -407 -28 -65 -59 -90 -113 -90 -33 0 -48 6 -69 28 -84
87 -88 265 -9 402 31 54 72 110 81 110 3 0 20 -20 37 -43z"/>
</g>
</svg>
